bicep_curl
version=1
nRows=493
nColumns=3
inDegrees=yes

# SIMM Motion File Header:
name bicep_curl
datacolumns 3
datarows 493
otherdata 1
range 0.0000 0.4920
endheader
time	/jointset/r_shoulder/r_shoulder_elev/value	/jointset/r_elbow/r_elbow_flex/value
0.0000	0.0000	107.9400
0.0010	0.0000	107.8242
0.0020	0.0000	107.7089
0.0030	0.0000	107.5940
0.0040	0.0000	107.4795
0.0050	0.0000	107.3656
0.0060	0.0000	107.2521
0.0070	0.0000	107.1390
0.0080	0.0000	107.0264
0.0090	0.0000	106.9142
0.0100	0.0000	106.8025
0.0110	0.0000	106.6913
0.0120	0.0000	106.5805
0.0130	0.0000	106.4702
0.0140	0.0000	106.3603
0.0150	0.0000	106.2509
0.0160	0.0000	106.1420
0.0170	0.0000	106.0335
0.0180	0.0000	105.9254
0.0190	0.0000	105.8178
0.0200	0.0000	105.7107
0.0210	0.0000	105.6040
0.0220	0.0000	105.4978
0.0230	0.0000	105.3921
0.0240	0.0000	105.2868
0.0250	0.0000	105.1819
0.0260	0.0000	105.0775
0.0270	0.0000	104.9736
0.0280	0.0000	104.8701
0.0290	0.0000	104.7671
0.0300	0.0000	104.6645
0.0310	0.0000	104.5624
0.0320	0.0000	104.4608
0.0330	0.0000	104.3596
0.0340	0.0000	104.2588
0.0350	0.0000	104.1585
0.0360	0.0000	104.0587
0.0370	0.0000	103.9593
0.0380	0.0000	103.8604
0.0390	0.0000	103.7619
0.0400	0.0000	103.6639
0.0410	0.0000	103.5664
0.0420	0.0000	103.4693
0.0430	0.0000	103.3727
0.0440	0.0000	103.2765
0.0450	0.0000	103.1808
0.0460	0.0000	103.0855
0.0470	0.0000	102.9907
0.0480	0.0000	102.8963
0.0490	0.0000	102.8024
0.0500	0.0000	102.7090
0.0510	0.0000	102.6160
0.0520	0.0000	102.5235
0.0530	0.0000	102.4314
0.0540	0.0000	102.3398
0.0550	0.0000	102.2486
0.0560	0.0000	102.1579
0.0570	0.0000	102.0677
0.0580	0.0000	101.9779
0.0590	0.0000	101.8886
0.0600	0.0000	101.7997
0.0610	0.0000	101.7113
0.0620	0.0000	101.6233
0.0630	0.0000	101.5358
0.0640	0.0000	101.4487
0.0650	0.0000	101.3621
0.0660	0.0000	101.2760
0.0670	0.0000	101.1903
0.0680	0.0000	101.1051
0.0690	0.0000	101.0203
0.0700	0.0000	100.9360
0.0710	0.0000	100.8521
0.0720	0.0000	100.7687
0.0730	0.0000	100.6858
0.0740	0.0000	100.6033
0.0750	0.0000	100.5212
0.0760	0.0000	100.4397
0.0770	0.0000	100.3585
0.0780	0.0000	100.2779
0.0790	0.0000	100.1977
0.0800	0.0000	100.1179
0.0810	0.0000	100.0386
0.0820	0.0000	99.9598
0.0830	0.0000	99.8814
0.0840	0.0000	99.8035
0.0850	0.0000	99.7260
0.0860	0.0000	99.6490
0.0870	0.0000	99.5724
0.0880	0.0000	99.4963
0.0890	0.0000	99.4207
0.0900	0.0000	99.3455
0.0910	0.0000	99.2707
0.0920	0.0000	99.1965
0.0930	0.0000	99.1226
0.0940	0.0000	99.0493
0.0950	0.0000	98.9764
0.0960	0.0000	98.9039
0.0970	0.0000	98.8319
0.0980	0.0000	98.7604
0.0990	0.0000	98.6893
0.1000	0.0000	98.6187
0.1010	0.0000	98.5485
0.1020	0.0000	98.4788
0.1030	0.0000	98.4095
0.1040	0.0000	98.3407
0.1050	0.0000	98.2724
0.1060	0.0000	98.2045
0.1070	0.0000	98.1370
0.1080	0.0000	98.0701
0.1090	0.0000	98.0035
0.1100	0.0000	97.9375
0.1110	0.0000	97.8719
0.1120	0.0000	97.8067
0.1130	0.0000	97.7420
0.1140	0.0000	97.6778
0.1150	0.0000	97.6140
0.1160	0.0000	97.5507
0.1170	0.0000	97.4878
0.1180	0.0000	97.4254
0.1190	0.0000	97.3634
0.1200	0.0000	97.3019
0.1210	0.0000	97.2409
0.1220	0.0000	97.1803
0.1230	0.0000	97.1201
0.1240	0.0000	97.0605
0.1250	0.0000	97.0012
0.1260	0.0000	96.9425
0.1270	0.0000	96.8842
0.1280	0.0000	96.8263
0.1290	0.0000	96.7689
0.1300	0.0000	96.7120
0.1310	0.0000	96.6555
0.1320	0.0000	96.5995
0.1330	0.0000	96.5439
0.1340	0.0000	96.4888
0.1350	0.0000	96.4341
0.1360	0.0000	96.3799
0.1370	0.0000	96.3262
0.1380	0.0000	96.2729
0.1390	0.0000	96.2200
0.1400	0.0000	96.1677
0.1410	0.0000	96.1157
0.1420	0.0000	96.0643
0.1430	0.0000	96.0133
0.1440	0.0000	95.9627
0.1450	0.0000	95.9126
0.1460	0.0000	95.8630
0.1470	0.0000	95.8138
0.1480	0.0000	95.7651
0.1490	0.0000	95.7168
0.1500	0.0000	95.6690
0.1510	0.0000	95.6216
0.1520	0.0000	95.5747
0.1530	0.0000	95.5283
0.1540	0.0000	95.4823
0.1550	0.0000	95.4368
0.1560	0.0000	95.3917
0.1570	0.0000	95.3471
0.1580	0.0000	95.3029
0.1590	0.0000	95.2592
0.1600	0.0000	95.2159
0.1610	0.0000	95.1731
0.1620	0.0000	95.1308
0.1630	0.0000	95.0889
0.1640	0.0000	95.0475
0.1650	0.0000	95.0065
0.1660	0.0000	94.9660
0.1670	0.0000	94.9259
0.1680	0.0000	94.8863
0.1690	0.0000	94.8472
0.1700	0.0000	94.8085
0.1710	0.0000	94.7703
0.1720	0.0000	94.7325
0.1730	0.0000	94.6952
0.1740	0.0000	94.6583
0.1750	0.0000	94.6219
0.1760	0.0000	94.5860
0.1770	0.0000	94.5505
0.1780	0.0000	94.5154
0.1790	0.0000	94.4808
0.1800	0.0000	94.4467
0.1810	0.0000	94.4130
0.1820	0.0000	94.3798
0.1830	0.0000	94.3471
0.1840	0.0000	94.3148
0.1850	0.0000	94.2829
0.1860	0.0000	94.2515
0.1870	0.0000	94.2206
0.1880	0.0000	94.1901
0.1890	0.0000	94.1601
0.1900	0.0000	94.1305
0.1910	0.0000	94.1014
0.1920	0.0000	94.0728
0.1930	0.0000	94.0446
0.1940	0.0000	94.0168
0.1950	0.0000	93.9896
0.1960	0.0000	93.9627
0.1970	0.0000	93.9364
0.1980	0.0000	93.9104
0.1990	0.0000	93.8850
0.2000	0.0000	93.8600
0.2010	0.0000	93.8354
0.2020	0.0000	93.8114
0.2030	0.0000	93.7877
0.2040	0.0000	93.7645
0.2050	0.0000	93.7418
0.2060	0.0000	93.7196
0.2070	0.0000	93.6978
0.2080	0.0000	93.6764
0.2090	0.0000	93.6555
0.2100	0.0000	93.6351
0.2110	0.0000	93.6151
0.2120	0.0000	93.5956
0.2130	0.0000	93.5765
0.2140	0.0000	93.5579
0.2150	0.0000	93.5397
0.2160	0.0000	93.5220
0.2170	0.0000	93.5048
0.2180	0.0000	93.4880
0.2190	0.0000	93.4716
0.2200	0.0000	93.4558
0.2210	0.0000	93.4404
0.2220	0.0000	93.4254
0.2230	0.0000	93.4109
0.2240	0.0000	93.3968
0.2250	0.0000	93.3832
0.2260	0.0000	93.3701
0.2270	0.0000	93.3574
0.2280	0.0000	93.3452
0.2290	0.0000	93.3334
0.2300	0.0000	93.3221
0.2310	0.0000	93.3112
0.2320	0.0000	93.3008
0.2330	0.0000	93.2909
0.2340	0.0000	93.2814
0.2350	0.0000	93.2724
0.2360	0.0000	93.2638
0.2370	0.0000	93.2557
0.2380	0.0000	93.2480
0.2390	0.0000	93.2408
0.2400	0.0000	93.2341
0.2410	0.0000	93.2278
0.2420	0.0000	93.2219
0.2430	0.0000	93.2166
0.2440	0.0000	93.2116
0.2450	0.0000	93.2072
0.2460	0.0000	93.2031
0.2470	0.0000	93.1996
0.2480	0.0000	93.1965
0.2490	0.0000	93.1938
0.2500	0.0000	93.1917
0.2510	0.0000	93.1899
0.2520	0.0000	93.1886
0.2530	0.0000	93.1878
0.2540	0.0000	93.1875
0.2550	0.0000	93.1876
0.2560	0.0000	93.1881
0.2570	0.0000	93.1891
0.2580	0.0000	93.1906
0.2590	0.0000	93.1925
0.2600	0.0000	93.1949
0.2610	0.0000	93.1977
0.2620	0.0000	93.2010
0.2630	0.0000	93.2047
0.2640	0.0000	93.2089
0.2650	0.0000	93.2136
0.2660	0.0000	93.2187
0.2670	0.0000	93.2243
0.2680	0.0000	93.2303
0.2690	0.0000	93.2368
0.2700	0.0000	93.2437
0.2710	0.0000	93.2511
0.2720	0.0000	93.2589
0.2730	0.0000	93.2673
0.2740	0.0000	93.2760
0.2750	0.0000	93.2852
0.2760	0.0000	93.2949
0.2770	0.0000	93.3050
0.2780	0.0000	93.3156
0.2790	0.0000	93.3267
0.2800	0.0000	93.3382
0.2810	0.0000	93.3501
0.2820	0.0000	93.3625
0.2830	0.0000	93.3754
0.2840	0.0000	93.3887
0.2850	0.0000	93.4025
0.2860	0.0000	93.4168
0.2870	0.0000	93.4314
0.2880	0.0000	93.4466
0.2890	0.0000	93.4622
0.2900	0.0000	93.4783
0.2910	0.0000	93.4948
0.2920	0.0000	93.5118
0.2930	0.0000	93.5292
0.2940	0.0000	93.5471
0.2950	0.0000	93.5654
0.2960	0.0000	93.5842
0.2970	0.0000	93.6035
0.2980	0.0000	93.6232
0.2990	0.0000	93.6434
0.3000	0.0000	93.6640
0.3010	0.0000	93.6851
0.3020	0.0000	93.7066
0.3030	0.0000	93.7286
0.3040	0.0000	93.7510
0.3050	0.0000	93.7740
0.3060	0.0000	93.7973
0.3070	0.0000	93.8211
0.3080	0.0000	93.8454
0.3090	0.0000	93.8701
0.3100	0.0000	93.8953
0.3110	0.0000	93.9210
0.3120	0.0000	93.9471
0.3130	0.0000	93.9736
0.3140	0.0000	94.0006
0.3150	0.0000	94.0281
0.3160	0.0000	94.0560
0.3170	0.0000	94.0844
0.3180	0.0000	94.1133
0.3190	0.0000	94.1426
0.3200	0.0000	94.1723
0.3210	0.0000	94.2025
0.3220	0.0000	94.2332
0.3230	0.0000	94.2643
0.3240	0.0000	94.2959
0.3250	0.0000	94.3279
0.3260	0.0000	94.3604
0.3270	0.0000	94.3933
0.3280	0.0000	94.4267
0.3290	0.0000	94.4606
0.3300	0.0000	94.4949
0.3310	0.0000	94.5297
0.3320	0.0000	94.5649
0.3330	0.0000	94.6006
0.3340	0.0000	94.6367
0.3350	0.0000	94.6733
0.3360	0.0000	94.7104
0.3370	0.0000	94.7479
0.3380	0.0000	94.7858
0.3390	0.0000	94.8243
0.3400	0.0000	94.8631
0.3410	0.0000	94.9025
0.3420	0.0000	94.9423
0.3430	0.0000	94.9825
0.3440	0.0000	95.0232
0.3450	0.0000	95.0644
0.3460	0.0000	95.1060
0.3470	0.0000	95.1480
0.3480	0.0000	95.1906
0.3490	0.0000	95.2335
0.3500	0.0000	95.2770
0.3510	0.0000	95.3209
0.3520	0.0000	95.3652
0.3530	0.0000	95.4100
0.3540	0.0000	95.4553
0.3550	0.0000	95.5010
0.3560	0.0000	95.5472
0.3570	0.0000	95.5938
0.3580	0.0000	95.6409
0.3590	0.0000	95.6885
0.3600	0.0000	95.7365
0.3610	0.0000	95.7849
0.3620	0.0000	95.8338
0.3630	0.0000	95.8832
0.3640	0.0000	95.9330
0.3650	0.0000	95.9833
0.3660	0.0000	96.0341
0.3670	0.0000	96.0853
0.3680	0.0000	96.1369
0.3690	0.0000	96.1890
0.3700	0.0000	96.2416
0.3710	0.0000	96.2946
0.3720	0.0000	96.3481
0.3730	0.0000	96.4020
0.3740	0.0000	96.4564
0.3750	0.0000	96.5112
0.3760	0.0000	96.5665
0.3770	0.0000	96.6223
0.3780	0.0000	96.6785
0.3790	0.0000	96.7352
0.3800	0.0000	96.7923
0.3810	0.0000	96.8499
0.3820	0.0000	96.9079
0.3830	0.0000	96.9664
0.3840	0.0000	97.0254
0.3850	0.0000	97.0848
0.3860	0.0000	97.1447
0.3870	0.0000	97.2050
0.3880	0.0000	97.2657
0.3890	0.0000	97.3270
0.3900	0.0000	97.3887
0.3910	0.0000	97.4508
0.3920	0.0000	97.5134
0.3930	0.0000	97.5765
0.3940	0.0000	97.6400
0.3950	0.0000	97.7040
0.3960	0.0000	97.7684
0.3970	0.0000	97.8333
0.3980	0.0000	97.8986
0.3990	0.0000	97.9644
0.4000	0.0000	98.0307
0.4010	0.0000	98.0974
0.4020	0.0000	98.1645
0.4030	0.0000	98.2322
0.4040	0.0000	98.3002
0.4050	0.0000	98.3688
0.4060	0.0000	98.4378
0.4070	0.0000	98.5072
0.4080	0.0000	98.5771
0.4090	0.0000	98.6475
0.4100	0.0000	98.7183
0.4110	0.0000	98.7895
0.4120	0.0000	98.8613
0.4130	0.0000	98.9335
0.4140	0.0000	99.0061
0.4150	0.0000	99.0792
0.4160	0.0000	99.1527
0.4170	0.0000	99.2267
0.4180	0.0000	99.3012
0.4190	0.0000	99.3761
0.4200	0.0000	99.4515
0.4210	0.0000	99.5273
0.4220	0.0000	99.6036
0.4230	0.0000	99.6804
0.4240	0.0000	99.7576
0.4250	0.0000	99.8352
0.4260	0.0000	99.9134
0.4270	0.0000	99.9919
0.4280	0.0000	100.0710
0.4290	0.0000	100.1504
0.4300	0.0000	100.2304
0.4310	0.0000	100.3108
0.4320	0.0000	100.3916
0.4330	0.0000	100.4729
0.4340	0.0000	100.5547
0.4350	0.0000	100.6369
0.4360	0.0000	100.7196
0.4370	0.0000	100.8027
0.4380	0.0000	100.8863
0.4390	0.0000	100.9704
0.4400	0.0000	101.0549
0.4410	0.0000	101.1398
0.4420	0.0000	101.2252
0.4430	0.0000	101.3111
0.4440	0.0000	101.3974
0.4450	0.0000	101.4842
0.4460	0.0000	101.5715
0.4470	0.0000	101.6592
0.4480	0.0000	101.7473
0.4490	0.0000	101.8359
0.4500	0.0000	101.9250
0.4510	0.0000	102.0145
0.4520	0.0000	102.1045
0.4530	0.0000	102.1949
0.4540	0.0000	102.2858
0.4550	0.0000	102.3772
0.4560	0.0000	102.4690
0.4570	0.0000	102.5612
0.4580	0.0000	102.6539
0.4590	0.0000	102.7471
0.4600	0.0000	102.8407
0.4610	0.0000	102.9348
0.4620	0.0000	103.0294
0.4630	0.0000	103.1244
0.4640	0.0000	103.2198
0.4650	0.0000	103.3157
0.4660	0.0000	103.4121
0.4670	0.0000	103.5089
0.4680	0.0000	103.6062
0.4690	0.0000	103.7039
0.4700	0.0000	103.8021
0.4710	0.0000	103.9008
0.4720	0.0000	103.9999
0.4730	0.0000	104.0994
0.4740	0.0000	104.1994
0.4750	0.0000	104.2999
0.4760	0.0000	104.4008
0.4770	0.0000	104.5022
0.4780	0.0000	104.6041
0.4790	0.0000	104.7064
0.4800	0.0000	104.8091
0.4810	0.0000	104.9123
0.4820	0.0000	105.0160
0.4830	0.0000	105.1201
0.4840	0.0000	105.2247
0.4850	0.0000	105.3297
0.4860	0.0000	105.4352
0.4870	0.0000	105.5412
0.4880	0.0000	105.6476
0.4890	0.0000	105.7544
0.4900	0.0000	105.8617
0.4910	0.0000	105.9695
0.4920	0.0000	106.0777
